<?xml version="1.0" encoding="utf-8"?>
<!-- Generator: Adobe Illustrator 16.0.0, SVG Export Plug-In . SVG Version: 6.00 Build 0)  -->
<!DOCTYPE svg PUBLIC "-//W3C//DTD SVG 1.1//EN" "http://www.w3.org/Graphics/SVG/1.1/DTD/svg11.dtd">
<svg version="1.1" id="Layer_1" xmlns="http://www.w3.org/2000/svg" xmlns:xlink="http://www.w3.org/1999/xlink" x="0px" y="0px"
	 width="100px" height="100px" viewBox="0 0 100 100" enable-background="new 0 0 100 100" xml:space="preserve">
<g>
	<g>
		<g id="circle_copy">
			<g>
				<path fill="#18BC9C" d="M45.104,44.855c-1.176,1.462-1.763,3.495-1.763,6.092c0,4.129,1.559,6.19,4.673,6.19
					c3.308,0,5.105-2.54,5.394-7.625l0.335-6.36c-1.15-0.326-2.403-0.488-3.762-0.488C47.9,42.66,46.276,43.393,45.104,44.855z
					 M49.737,0.647c-27.069,0-49.014,22.107-49.014,49.376s21.945,49.375,49.014,49.375c27.07,0,49.014-22.106,49.014-49.375
					S76.808,0.647,49.737,0.647z M67.063,54.094c-0.702,1.917-1.692,3.401-2.969,4.463c-1.281,1.057-2.747,1.583-4.41,1.583
					c-1.374,0-2.534-0.421-3.478-1.269c-0.942-0.845-1.498-1.926-1.679-3.243h-0.191c-0.64,1.415-1.558,2.52-2.745,3.315
					c-1.188,0.797-2.599,1.193-4.228,1.193c-2.395,0-4.271-0.832-5.62-2.5c-1.351-1.663-2.026-3.925-2.026-6.786
					c0-3.314,0.943-6.007,2.829-8.079c1.884-2.072,4.36-3.107,7.43-3.107c1.085,0,2.316,0.1,3.685,0.303
					c1.374,0.205,2.61,0.484,3.719,0.841l-0.599,11.455v0.538c0,2.893,1.061,4.338,3.187,4.338c1.452,0,2.635-0.872,3.544-2.618
					c0.912-1.747,1.368-4.019,1.368-6.812c0-2.94-0.594-5.516-1.774-7.726s-2.862-3.912-5.044-5.108
					c-2.182-1.192-4.685-1.791-7.507-1.791c-3.563,0-6.664,0.75-9.298,2.256c-2.636,1.503-4.648,3.647-6.04,6.434
					c-1.387,2.787-2.083,6.008-2.083,9.664c0,4.955,1.285,8.769,3.858,11.431c2.573,2.666,6.279,3.998,11.118,3.998
					c3.355,0,6.834-0.699,10.448-2.096v3.245c-3.067,1.365-6.546,2.045-10.448,2.045c-5.796,0-10.299-1.622-13.501-4.86
					c-3.201-3.238-4.805-7.771-4.805-13.587c0-4.225,0.856-7.986,2.564-11.286c1.709-3.297,4.146-5.853,7.307-7.664
					c3.164-1.812,6.791-2.719,10.881-2.719c3.43,0,6.484,0.736,9.161,2.207c2.675,1.471,4.748,3.558,6.207,6.265
					c1.455,2.702,2.191,5.817,2.191,9.343C68.117,50.061,67.767,52.178,67.063,54.094z"/>
			</g>
		</g>
	</g>
</g>
</svg>
