<?xml version="1.0" encoding="utf-8"?>
<!-- Generator: Adobe Illustrator 16.0.0, SVG Export Plug-In . SVG Version: 6.00 Build 0)  -->
<!DOCTYPE svg PUBLIC "-//W3C//DTD SVG 1.1//EN" "http://www.w3.org/Graphics/SVG/1.1/DTD/svg11.dtd">
<svg version="1.1" id="Layer_1" xmlns="http://www.w3.org/2000/svg" xmlns:xlink="http://www.w3.org/1999/xlink" x="0px" y="0px"
	 width="100px" height="100px" viewBox="0 0 100 100" enable-background="new 0 0 100 100" xml:space="preserve">
<g>
	<g>
		<g>
			<path fill="#18BC9C" d="M49.875,0.5C22.608,0.5,0.5,22.608,0.5,49.875c0,27.268,22.108,49.375,49.375,49.375
				c27.268,0,49.375-22.107,49.375-49.375C99.25,22.603,77.143,0.5,49.875,0.5z M62.636,49.869l-8.089,0.006L54.541,79.5H43.438
				V49.875h-7.407V39.667l7.407-0.006l-0.013-6.011c0-8.333,2.259-13.399,12.064-13.399h8.174v10.214h-5.109
				c-3.822,0-4.007,1.426-4.007,4.085l-0.012,5.111h9.184L62.636,49.869z"/>
		</g>
	</g>
</g>
</svg>
