<?xml version="1.0" encoding="utf-8"?>
<!-- Generator: Adobe Illustrator 16.0.0, SVG Export Plug-In . SVG Version: 6.00 Build 0)  -->
<!DOCTYPE svg PUBLIC "-//W3C//DTD SVG 1.1//EN" "http://www.w3.org/Graphics/SVG/1.1/DTD/svg11.dtd">
<svg version="1.1" id="Layer_1" xmlns="http://www.w3.org/2000/svg" xmlns:xlink="http://www.w3.org/1999/xlink" x="0px" y="0px"
	 width="100px" height="100px" viewBox="0 0 100 100" enable-background="new 0 0 100 100" xml:space="preserve">
<g>
	<path fill="#18BC9C" d="M92.439,25.271c-4.372-7.776-10.305-13.93-17.797-18.467C67.149,2.267,58.969,0,50.095,0
		C41.223,0,33.04,2.267,25.549,6.804c-7.493,4.537-13.425,10.691-17.798,18.467c-4.373,7.773-6.56,16.263-6.56,25.467
		c0,11.058,3.11,21.001,9.33,29.832c6.218,8.831,14.251,14.942,24.1,18.333c1.147,0.221,1.995,0.064,2.547-0.463
		c0.552-0.526,0.828-1.189,0.828-1.979c0-0.132-0.011-1.321-0.033-3.568s-0.031-4.208-0.031-5.879l-1.465,0.263
		c-0.935,0.177-2.112,0.253-3.535,0.231c-1.42-0.021-2.896-0.177-4.425-0.463c-1.529-0.285-2.95-0.946-4.266-1.98
		c-1.316-1.035-2.25-2.392-2.802-4.063l-0.637-1.52c-0.424-1.013-1.093-2.137-2.006-3.369c-0.913-1.234-1.836-2.071-2.77-2.511
		l-0.446-0.331c-0.298-0.22-0.573-0.485-0.827-0.794s-0.445-0.617-0.572-0.925c-0.128-0.309-0.022-0.562,0.318-0.762
		c0.339-0.198,0.954-0.294,1.846-0.294l1.274,0.197c0.849,0.176,1.898,0.703,3.152,1.587c1.252,0.88,2.281,2.023,3.087,3.432
		c0.978,1.808,2.154,3.185,3.533,4.13c1.38,0.949,2.771,1.421,4.171,1.421c1.401,0,2.611-0.11,3.63-0.329
		c1.019-0.221,1.974-0.551,2.866-0.991c0.382-2.952,1.422-5.22,3.12-6.806c-2.42-0.265-4.595-0.66-6.527-1.189
		c-1.932-0.528-3.926-1.387-5.985-2.579c-2.059-1.188-3.768-2.664-5.126-4.425c-1.358-1.762-2.473-4.076-3.342-6.937
		c-0.871-2.864-1.305-6.168-1.305-9.911c0-5.331,1.677-9.867,5.03-13.61c-1.57-4.008-1.423-8.501,0.445-13.478
		c1.232-0.397,3.057-0.099,5.477,0.891c2.421,0.992,4.192,1.841,5.317,2.544s2.026,1.3,2.706,1.784
		c3.949-1.145,8.024-1.718,12.226-1.718c4.202,0,8.278,0.573,12.227,1.718l2.419-1.585c1.656-1.057,3.609-2.027,5.858-2.908
		c2.248-0.881,3.971-1.123,5.159-0.726c1.908,4.978,2.079,9.47,0.508,13.478c3.354,3.744,5.032,8.282,5.032,13.61
		c0,3.744-0.438,7.058-1.306,9.943c-0.87,2.887-1.995,5.197-3.374,6.938c-1.379,1.742-3.1,3.206-5.16,4.394
		c-2.059,1.188-4.054,2.049-5.984,2.577c-1.932,0.529-4.107,0.925-6.526,1.189c2.206,1.982,3.31,5.11,3.31,9.382v13.939
		c0,0.791,0.265,1.453,0.797,1.981c0.53,0.527,1.369,0.683,2.515,0.463c9.85-3.392,17.883-9.502,24.102-18.334
		C95.889,71.735,99,61.794,99,50.737C98.997,41.534,96.81,33.044,92.439,25.271z"/>
</g>
</svg>
